<?xml version="1.0" encoding="utf-8"?>
<!-- Generator: Adobe Illustrator 25.3.1, SVG Export Plug-In . SVG Version: 6.00 Build 0)  -->
<svg version="1.1" id="レイヤー_1" xmlns="http://www.w3.org/2000/svg" xmlns:xlink="http://www.w3.org/1999/xlink" x="0px"
	 y="0px" viewBox="0 0 55.4 11" style="enable-background:new 0 0 55.4 11;" xml:space="preserve">
<style type="text/css">
	.st0{fill-rule:evenodd;clip-rule:evenodd;fill:#8E4ECC;}
</style>
<path id="icon_etc.svg" class="st0" d="M5.5,0c3,0,5.5,2.5,5.5,5.5c0,3-2.5,5.5-5.5,5.5C2.5,11,0,8.6,0,5.5C0,2.5,2.5,0,5.5,0z
	 M27.7,0c3,0,5.5,2.5,5.5,5.5c0,3-2.5,5.5-5.5,5.5c-3,0-5.5-2.5-5.5-5.5C22.2,2.5,24.7,0,27.7,0C27.7,0,27.7,0,27.7,0z M49.9,0
	c3,0,5.5,2.5,5.5,5.5c0,3-2.5,5.5-5.5,5.5c-3,0-5.5-2.5-5.5-5.5C44.3,2.5,46.8,0,49.9,0z"/>
</svg>
