<?xml version="1.0" encoding="utf-8"?>
<!-- Generator: Adobe Illustrator 25.3.1, SVG Export Plug-In . SVG Version: 6.00 Build 0)  -->
<svg version="1.1" id="レイヤー_1" xmlns="http://www.w3.org/2000/svg" xmlns:xlink="http://www.w3.org/1999/xlink" x="0px"
	 y="0px" viewBox="0 0 87.3 107.6" style="enable-background:new 0 0 87.3 107.6;" xml:space="preserve">
<style type="text/css">
	.st0{fill-rule:evenodd;clip-rule:evenodd;fill:#8E4ECC;}
</style>
<path id="icon_bell.svg" class="st0" d="M84.1,76.8c-2.7-4.1-6.4-9.6-6.4-25.5v-7.2c0-15-9.6-28.3-23.9-32.9v-0.9
	C53.9,4.7,49.4,0.1,43.8,0S33.5,4.5,33.4,10.1c0,0.1,0,0.1,0,0.2v0.9C19.2,15.9,9.5,29.2,9.6,44.1v7.2c0,15.9-3.7,21.4-6.4,25.5
	C1.5,79.3,0,81.7,0,85.2c0,3.9,3.4,6.9,10.2,9c6.3,1.8,12.8,2.8,19.3,3.2c2.6,7.8,11,12,18.8,9.4c4.5-1.5,7.9-5,9.4-9.4
	c6.5-0.3,13-1.4,19.3-3.2c6.8-2.1,10.2-5.2,10.2-9C87.3,81.7,85.8,79.3,84.1,76.8z M79,80.3c1.5,2.2,2.2,3.3,2.2,4.9
	c0,0.7-2.2,2.6-10.4,4.2c-9,1.6-18.1,2.4-27.2,2.3c-9.1,0.1-18.2-0.7-27.2-2.3c-8.2-1.7-10.4-3.5-10.4-4.2c0-1.6,0.7-2.6,2.2-4.9
	c2.9-4.4,7.4-11.2,7.4-28.9v-7.2C15.5,28.7,27.9,16,43.4,15.9c15.5-0.2,28.1,12.2,28.3,27.7c0,0.2,0,0.4,0,0.6v7.2
	C71.7,69.1,76.1,75.8,79,80.3L79,80.3z M43.7,9.7c-1.4,0-2.7,0.1-4.1,0.3C39.8,7.7,41.7,6,44,6.2c2,0.2,3.6,1.8,3.8,3.8
	C46.4,9.8,45,9.7,43.7,9.7L43.7,9.7z M43.7,97.9c1.6,0,4.1,0,7.1-0.1c-2.8,3.9-8.3,4.8-12.2,1.9c-0.7-0.5-1.4-1.2-1.9-1.9
	C39.6,97.9,42,97.9,43.7,97.9z"/>
</svg>
