<?xml version="1.0" encoding="utf-8"?>
<!-- Generator: Adobe Illustrator 25.3.1, SVG Export Plug-In . SVG Version: 6.00 Build 0)  -->
<svg version="1.1" id="レイヤー_1" xmlns="http://www.w3.org/2000/svg" xmlns:xlink="http://www.w3.org/1999/xlink" x="0px"
	 y="0px" viewBox="0 0 121.9 105" style="enable-background:new 0 0 121.9 105;" xml:space="preserve">
<style type="text/css">
	.st0{fill-rule:evenodd;clip-rule:evenodd;fill:#8E4ECC;}
</style>
<path id="icon_history.svg" class="st0" d="M35.8,82.2L30,87.3c1.9,2.1,3.9,4,6.1,5.8l4.9-6C39.1,85.6,37.4,83.9,35.8,82.2z
	 M28.1,70.1L21,73.2c1.1,2.6,2.4,5.1,3.9,7.4l6.6-4.2C30.2,74.4,29.1,72.3,28.1,70.1z M69.3,0C43,0,20.7,19.5,17.2,45.6L6.6,35
	c-1.5-1.5-4-1.5-5.5,0l0,0c-1.5,1.5-1.5,4,0,5.5c0,0,0,0,0,0l19.5,19.4l19.5-19.4c1.5-1.5,1.5-4,0-5.5c0,0,0,0,0,0l0,0
	c-1.5-1.5-4-1.5-5.5,0l-9.3,9.3C29.8,20,53.2,4,77.5,8.5c24.3,4.5,40.3,27.9,35.7,52.2C108.7,85,85.3,101,61,96.4
	c-5-0.9-9.8-2.7-14.2-5.3l-3.9,6.7C68,112.5,100.2,104,114.8,79c14.6-25.1,6.1-57.2-18.9-71.8C87.8,2.5,78.6,0,69.3,0z M63.5,17.5
	v42.8l17.2,12.8l4.7-6.2l-14-10.5V17.5H63.5L63.5,17.5z"/>
</svg>
