<?xml version="1.0" encoding="utf-8"?>
<!-- Generator: Adobe Illustrator 25.3.1, SVG Export Plug-In . SVG Version: 6.00 Build 0)  -->
<svg version="1.1" id="レイヤー_1" xmlns="http://www.w3.org/2000/svg" xmlns:xlink="http://www.w3.org/1999/xlink" x="0px"
	 y="0px" viewBox="0 0 101.8 101.8" style="enable-background:new 0 0 101.8 101.8;" xml:space="preserve">
<style type="text/css">
	.st0{fill-rule:evenodd;clip-rule:evenodd;fill:#8E4ECC;}
</style>
<path id="icon_help.svg" class="st0" d="M94.5,101.8c-0.8,0-1.6-0.1-2.4-0.4l-20.3-7c-6.8,3.4-14.4,5.1-22,5.2h-0.1
	C22.3,99.5,0,77.2,0,49.8C0,22.3,22.3,0,49.8,0c27.5,0,49.7,22.3,49.7,49.8c0,7.6-1.8,15.2-5.1,22l7,20.3l0,0
	c1.3,3.8-0.7,7.9-4.5,9.2C96.1,101.6,95.3,101.8,94.5,101.8z M71.6,88.1c0.3,0,0.7,0.1,1,0.2l21.5,7.4c0.6,0.2,1.3-0.1,1.5-0.8
	c0.1-0.3,0.1-0.5,0-0.8l-7.4-21.6c-0.3-0.8-0.2-1.7,0.2-2.4c11.3-21.3,3.1-47.8-18.3-59c-21.3-11.3-47.8-3.1-59,18.3
	c-11.3,21.3-3.1,47.8,18.3,59c12.8,6.7,28,6.7,40.8,0C70.6,88.2,71.1,88.1,71.6,88.1z M49.3,78.1c1.7,0,3-1.4,3-3c0-1.7-1.4-3-3-3
	c-1.7,0-3,1.4-3,3c0,0,0,0,0,0C46.3,76.8,47.6,78.1,49.3,78.1L49.3,78.1z M49.3,67.7c-1.7,0-3-1.4-3-3c0,0,0,0,0,0V52.4
	c0-1.7,1.3-3,3-3c0,0,0,0,0,0c5,0,9-4,9-9c0-5-4-9-9-9c-5,0-9,4-9,9c0,1.7-1.3,3-3,3.1c-1.7,0-3-1.3-3.1-3c0,0,0-0.1,0-0.1
	c0-8.3,6.7-15,15-15s15,6.7,15,15c0,7.1-5,13.3-12,14.7v9.6C52.3,66.4,51,67.7,49.3,67.7C49.3,67.7,49.3,67.7,49.3,67.7L49.3,67.7z"
	/>
</svg>
