<?xml version="1.0" encoding="utf-8"?>
<!-- Generator: Adobe Illustrator 25.3.1, SVG Export Plug-In . SVG Version: 6.00 Build 0)  -->
<svg version="1.1" id="レイヤー_1" xmlns="http://www.w3.org/2000/svg" xmlns:xlink="http://www.w3.org/1999/xlink" x="0px"
	 y="0px" viewBox="0 0 96 96" style="enable-background:new 0 0 96 96;" xml:space="preserve">
<style type="text/css">
	.st0{fill-rule:evenodd;clip-rule:evenodd;fill:#8E4ECC;}
</style>
<path id="icon_user.svg" class="st0" d="M81.9,62.1c-5.1-5.2-11.4-9.1-18.2-11.4c12.6-8.7,15.9-25.9,7.2-38.6
	C62.2-0.6,44.9-3.8,32.3,4.9c-12.6,8.7-15.9,25.9-7.2,38.6c1.9,2.8,4.4,5.2,7.2,7.2C13,57.3,0,75.5,0,96h7.5
	c0-22.4,18.1-40.5,40.5-40.5S88.5,73.6,88.5,96H96C96,83.3,91,71,81.9,62.1z M27.8,27.7c0-11.2,9.1-20.2,20.2-20.2
	s20.2,9.1,20.2,20.2S59.2,48,48,48C36.8,48,27.8,38.9,27.8,27.7z"/>
</svg>
