<?xml version="1.0" encoding="utf-8"?>
<!-- Generator: Adobe Illustrator 25.3.1, SVG Export Plug-In . SVG Version: 6.00 Build 0)  -->
<svg version="1.1" id="_x32_" xmlns="http://www.w3.org/2000/svg" xmlns:xlink="http://www.w3.org/1999/xlink" x="0px" y="0px"
	 viewBox="0 0 512 512" style="enable-background:new 0 0 512 512;" xml:space="preserve">
<style type="text/css">
	.st0{fill:#41C1EB;}
</style>
<g>
	<path class="st0" d="M453,429.8c-2-7.5-4.8-14.2-8.3-20.2c-6.1-10.5-14.2-18.7-23.2-25.2c-6.7-4.9-13.9-8.8-21.2-12.2
		c-10.9-5.1-22.1-9.1-32.4-12.9c-10.3-3.8-19.8-7.5-27.1-11.9c-2.7-1.6-5.1-3.2-7.2-5c-3.1-2.6-5.5-5.4-7.3-8.5s-3-6.6-3.4-11
		c-0.3-3.1-0.5-6.1-0.5-8.8c0-8.2,1.2-15.4,2.8-22.7c4.6-5.2,8.8-11.4,12.8-18.9s7.8-16.2,11.6-26.5c2.4-1.1,4.9-2.4,7.3-4
		c5.5-3.7,10.6-8.8,14.9-15.6s7.8-15.3,10.1-25.7c0.7-2.9,1-5.8,1-8.6c0-5.9-1.4-11.6-3.8-16.6c-1.6-3.5-3.7-6.7-6.1-9.6
		c1.2-4.5,2.7-10.7,4.1-17.9c1.8-10,3.4-21.9,3.4-34.5c0-8.1-0.6-16.5-2.3-24.8c-1.2-6.2-3-12.4-5.6-18.3
		c-3.8-8.9-9.4-17.2-17.2-24.1c-7.2-6.4-16.2-11.5-27.1-14.7c-4.6-5.5-9.4-10.2-14.3-14.1c-8.3-6.6-17-11-25.9-13.7S270.2,0,261.2,0
		c-4.7,0-9.5,0.3-14.2,0.7c-4.4,0.4-8.1,0.9-11.4,1.4c-4.9,0.8-9,1.9-12.9,3.3c-4,1.4-7.8,3-12.7,4.9c-1.9,0.8-4.4,1.8-7.4,3.4
		c-5.2,2.6-12,6.5-19.2,11.9c-10.8,8-22.8,19.4-32,34.8c-4.7,7.7-8.6,16.4-11.4,26.1c-2.8,9.8-4.4,20.5-4.4,32.3
		c0,7.3,0.7,15.1,2,23.2c0,0.6,0,1.1,0.1,1.7c0.1,1,0.2,2.1,0.3,3.2c0.2,1.6,0.4,3.3,0.5,4.7c0.1,0.7,0.1,1.3,0.2,1.8
		c0,0.2,0,0.4,0,0.6v0.2v0v0v0.9l2,8.8c-2.8,3.1-5.3,6.6-7.2,10.4c-2.7,5.3-4.3,11.3-4.2,17.7c0,2.8,0.3,5.7,1,8.6
		c1.6,7,3.6,13.1,6.1,18.4c3.7,8,8.4,14.2,13.6,18.8c4,3.6,8.3,6.2,12.6,8.2c3.8,10.3,7.6,19,11.6,26.5c4,7.4,8.2,13.6,12.8,18.8
		c1.5,7.3,2.8,14.5,2.8,22.8c0,2.8-0.1,5.7-0.5,8.8c-0.3,3-1,5.6-1.9,7.9c-1.4,3.5-3.5,6.5-6.3,9.3c-2.8,2.8-6.4,5.4-10.7,7.8
		c-4.3,2.5-9.3,4.7-14.8,6.9c-9.5,3.9-20.4,7.5-31.4,11.9c-8.3,3.3-16.6,7.1-24.6,11.8c-6,3.5-11.8,7.6-17,12.5
		c-7.9,7.2-14.8,16.3-19.5,27.5c-4.8,11.2-7.4,24.5-7.4,40.2c0,2.2,0.5,4.3,1.2,6.3c0.7,1.8,1.7,3.5,2.8,5.1c2.2,3,5,5.6,8.4,8.2
		c6,4.5,14.1,8.6,24.5,12.6c15.6,5.9,36.5,11.1,63.5,15c27,3.8,60.1,6.2,100.1,6.2c34.6,0,64.1-1.8,88.9-4.8
		c18.6-2.2,34.6-5.1,48.2-8.4c10.2-2.5,19-5.2,26.6-8.1c5.7-2.1,10.7-4.4,15-6.7c3.2-1.8,6.1-3.5,8.7-5.3c3.8-2.8,6.9-5.6,9.2-8.8
		c1.1-1.6,2.1-3.3,2.8-5.2c0.7-1.9,1.1-3.9,1.1-6C456.6,447.9,455.3,438.3,453,429.8z M238.5,437.3l-59-75.5c3.1-1.8,6-3.8,8.7-5.9
		c2.9-2.4,5.6-5,8-7.9l42.9,19.9l-9.2,15.3l14.2,15L238.5,437.3z M202.3,337.9c1.7-4,2.9-8.5,3.4-13.2c0.4-3.7,0.6-7.2,0.6-10.6
		c0-10.9-1.8-20.2-3.6-28.5l-0.5-2.3l-1.6-1.7c-4-4.3-8-9.8-11.9-17c-3.9-7.3-7.8-16.4-11.8-27.7l-1.3-3.7l-3.7-1.4
		c-2.6-0.9-5-2.1-7.4-3.8c-3.6-2.4-7-5.7-10.2-10.7c-3.1-4.9-5.9-11.5-8-20.5c-0.4-1.7-0.5-3.3-0.5-4.9c0-3.6,0.9-7,2.5-10.2
		c1.3-2.7,3.2-5.2,5.5-7.5c3.8,5.8,7,10.4,8.2,11.5c3.8,3.8,2.6,2.6,3.8,0.8c0,0,4.3-6,26.8-49.9c45.1,10,124-57.8,124-57.8
		s1,21.9,16,42c14.3,19,22.4,63.7,22.4,63.7s1.9-3.7,4.8-8.6c1.7,2,3.2,4.2,4.2,6.5c1.4,3.1,2.2,6.3,2.2,9.6c0,1.6-0.2,3.2-0.5,4.9
		c-1.4,6-3,10.9-5,15c-2.9,6.1-6.2,10.3-9.6,13.4c-3.5,3.1-7.1,5.1-11,6.5l-3.7,1.3l-1.3,3.7c-4,11.3-7.9,20.4-11.8,27.7
		c-3.9,7.3-7.8,12.8-11.9,17.1l-1.6,1.7l-0.5,2.3c-1.8,8.3-3.6,17.5-3.6,28.5c0,3.3,0.2,6.9,0.5,10.6c0.5,4.3,1.4,8.4,2.9,12.2
		c0.1,0.2,0.1,0.3,0.2,0.5L258.6,364L202.3,337.9z M277.6,440l-6.1-41.8l14.2-15l-9.2-15.3l38.8-20.4c1.1,1.4,2.2,2.7,3.4,4
		c3.9,4,8.3,7.2,13.1,10.1L277.6,440z"/>
</g>
</svg>
