<?xml version="1.0" encoding="utf-8"?>
<!-- Generator: Adobe Illustrator 25.3.1, SVG Export Plug-In . SVG Version: 6.00 Build 0)  -->
<svg version="1.1" id="レイヤー_1" xmlns="http://www.w3.org/2000/svg" xmlns:xlink="http://www.w3.org/1999/xlink" x="0px"
	 y="0px" viewBox="0 0 96.9 96.9" style="enable-background:new 0 0 96.9 96.9;" xml:space="preserve">
<style type="text/css">
	.st0{fill:#8E4ECC;}
</style>
<g id="レイヤー_2_1_">
	<g id="レイヤー_1-2">
		<path class="st0" d="M48.4,96.9C21.7,96.9,0,75.2,0,48.4S21.7,0,48.4,0s48.4,21.7,48.4,48.4C96.9,75.2,75.2,96.9,48.4,96.9
			C48.5,96.9,48.4,96.9,48.4,96.9z M48.4,9.4c-21.5,0-39,17.5-39,39s17.5,39.1,39.1,39.1s39-17.5,39-39.1l0,0
			C87.5,26.9,70,9.4,48.4,9.4C48.5,9.4,48.4,9.4,48.4,9.4z M73.4,51.6c0,1.3-1.1,2.3-2.3,2.3H53.9v17.2c0,1.3-1.1,2.3-2.3,2.3h-6.2
			c-1.3,0-2.3-1.1-2.3-2.3V53.9H25.8c-1.3,0-2.3-1.1-2.3-2.3v-6.2c0-1.3,1.1-2.3,2.3-2.3H43V25.8c0-1.3,1-2.3,2.3-2.3l0,0h6.2
			c1.3,0,2.3,1,2.3,2.3V43h17.1c1.3,0,2.3,1,2.3,2.3L73.4,51.6z"/>
	</g>
</g>
</svg>
