<svg xmlns="http://www.w3.org/2000/svg" viewBox="0 0 675.3 792.05"><defs><style>.cls-1{fill:#a46fb4;}.cls-2{fill:#e97cbc;}.cls-3{fill:#d83493;}.cls-4{fill:#36afcd;}.cls-5{fill:#77cadc;}</style></defs><g id="レイヤー_2" data-name="レイヤー 2"><g id="レイヤー_1-2" data-name="レイヤー 1"><path class="cls-1" d="M337.65,792.05A11.45,11.45,0,0,1,326.2,780.6V680.25a11.45,11.45,0,0,1,22.9,0V780.6A11.45,11.45,0,0,1,337.65,792.05Z"/><path class="cls-2" d="M161.44,757.48a11.46,11.46,0,0,1-10.2-16.64l47-92.44a11.45,11.45,0,0,1,20.41,10.38l-47,92.44A11.45,11.45,0,0,1,161.44,757.48Z"/><path class="cls-3" d="M11.45,662.05a11.46,11.46,0,0,1-8.1-19.55l79.44-79.43A11.45,11.45,0,1,1,99,579.26L19.54,658.69A11.38,11.38,0,0,1,11.45,662.05Z"/><path class="cls-4" d="M513.87,757.48a11.45,11.45,0,0,1-10.22-6.26l-47-92.44a11.44,11.44,0,1,1,20.4-10.38l47,92.44a11.45,11.45,0,0,1-10.19,16.64Z"/><path class="cls-5" d="M663.85,662.05a11.38,11.38,0,0,1-8.09-3.36l-79.43-79.43a11.45,11.45,0,1,1,16.19-16.19L672,642.5a11.46,11.46,0,0,1-8.1,19.55Z"/><path class="cls-1" d="M337.65,0A11.45,11.45,0,0,1,349.1,11.45V111.8a11.45,11.45,0,0,1-22.9,0V11.45A11.45,11.45,0,0,1,337.65,0Z"/><path class="cls-2" d="M513.87,34.57a11.45,11.45,0,0,1,10.19,16.64l-47,92.44a11.44,11.44,0,1,1-20.4-10.38l47-92.44A11.46,11.46,0,0,1,513.87,34.57Z"/><path class="cls-3" d="M663.85,130a11.46,11.46,0,0,1,8.1,19.55L592.52,229a11.45,11.45,0,1,1-16.19-16.19l79.43-79.43A11.38,11.38,0,0,1,663.85,130Z"/><path class="cls-4" d="M161.44,34.57a11.45,11.45,0,0,1,10.21,6.26l47,92.44a11.45,11.45,0,0,1-20.41,10.38l-47-92.44a11.46,11.46,0,0,1,10.2-16.64Z"/><path class="cls-5" d="M11.45,130a11.38,11.38,0,0,1,8.09,3.36L99,212.79A11.45,11.45,0,0,1,82.78,229L3.35,149.55A11.46,11.46,0,0,1,11.45,130Z"/></g></g></svg>