<?xml version="1.0" encoding="utf-8"?>
<!-- Generator: Adobe Illustrator 25.3.1, SVG Export Plug-In . SVG Version: 6.00 Build 0)  -->
<svg version="1.1" id="レイヤー_1" xmlns="http://www.w3.org/2000/svg" xmlns:xlink="http://www.w3.org/1999/xlink" x="0px"
	 y="0px" viewBox="0 0 99 106" style="enable-background:new 0 0 99 106;" xml:space="preserve">
<style type="text/css">
	.st0{fill-rule:evenodd;clip-rule:evenodd;fill:#8E4ECC;}
</style>
<path id="icon_foot.svg" class="st0" d="M13,59.1c1.5-0.4,14.9-4.1,18.7-5c1.5-0.4,2.5-1.7,2.5-3.2C34,48.4,34,47.3,34,47.1
	c0.2-4.3,0.7-8.5,1.6-12.7c1.4-7.5,2.9-15.3-0.1-23.1c-1.3-3.8-3.9-7.1-7.3-9.3c-3.6-2.2-8.1-2.6-12-1c-4.9,1.9-9.1,5.4-11.7,10
	c-2.5,4.4-4,9.4-4.3,14.5C-0.1,28.3,0,31.2,0.5,34c0.2,1.1,1.3,1.9,2.4,1.7s1.9-1.3,1.7-2.4c-0.4-2.5-0.6-5.1-0.4-7.6
	C5,15.5,10,7.7,17.6,4.8c6.7-2.5,11.9,2.2,14,7.9c2.6,6.8,1.2,14-0.1,21c-0.4,1.9-0.7,4-1,5.9c-0.4,2.4-0.6,4.9-0.6,7.4
	c0,0.3,0,1.4,0.1,3.2c-3.6,0.9-12.1,3.2-17.2,4.6c-1-2.6-2.1-4.9-3-7l0,0c-1.3-3-2.4-5.5-3.3-8c-0.4-1.1-1.6-1.6-2.7-1.2
	c-1.1,0.4-1.6,1.6-1.2,2.6c0.9,2.6,2.1,5.2,3.4,8.2l0,0.1c1,2.4,2.1,4.9,3.2,7.7c0.5,1.2,1.7,2,3,2C12.4,59.2,12.7,59.2,13,59.1z
	 M36.4,60.6L36.4,60.6c-0.2-0.9-0.7-1.7-1.4-2.2c-0.7-0.5-1.7-0.6-2.5-0.4l-18.3,4.5c-1.7,0.4-2.8,2.2-2.4,3.9c0,0.1,0,0.2,0.1,0.3
	l3.4,11.3c0,0,0,0.1,0,0.1c1.7,4.6,6.1,7.7,11.1,7.7c1,0,2.1-0.1,3.1-0.4c5.9-1.6,9.7-7.4,8.6-13.5L36.4,60.6z M28.4,81.2
	c-3.8,1-7.7-1-9.1-4.7l-3.1-10.3l16.3-4l1.5,10.1c0,0,0,0.1,0,0.1C34.7,76.4,32.2,80.2,28.4,81.2L28.4,81.2z M68.6,22.2L68.6,22.2
	c-3.8-1.9-8.3-1.8-12.1,0.2c-3.6,1.9-6.4,5-8,8.7c-3.5,7.6-2.6,15.4-1.8,23c0.6,4.2,0.8,8.5,0.7,12.8c0,0.3-0.2,1.6-0.4,3.7
	c-0.2,1.5,0.8,2.9,2.2,3.4c3.3,1.1,14.8,5.1,18.3,6.4c1.6,0.6,3.3-0.1,4-1.6c1.3-2.8,2.6-5.2,3.8-7.5c4.3-8.4,7.5-14.4,7.5-23.5
	c0-5.1-1.1-10.2-3.3-14.8C77.2,28.3,73.4,24.5,68.6,22.2L68.6,22.2z M71.6,69.4c-1.1,2-2.2,4.3-3.5,6.9c-3.5-1.3-13-4.6-16.8-5.9
	c0.1-1.3,0.3-2.8,0.3-3.2c0.2-4.5-0.1-9-0.7-13.5c-0.8-7.4-1.6-14.3,1.4-20.8c2.6-5.5,8.1-9.8,14.5-6.9c3.9,1.9,7,5,8.9,8.9
	c1.9,4,2.9,8.4,2.9,12.9C78.6,55.9,75.8,61.2,71.6,69.4L71.6,69.4L71.6,69.4z M66.1,83.7l-8-2.6c-1.1-0.3-2.3,0.2-2.6,1.3
	c-0.2,0.5-0.1,1.1,0.1,1.6c0.3,0.5,0.7,0.9,1.2,1l7,2.3L60,97.4c-1.8,3.8-6.4,5.5-10.2,3.7c-3.3-1.6-5.1-5.3-4.2-8.8c0,0,0,0,0-0.1
	l2.3-10l2.1,0.7c1.1,0.4,2.3-0.2,2.6-1.3c0.4-1.1-0.2-2.3-1.3-2.6c0,0,0,0,0,0l-3.1-1c-1.7-0.5-3.5,0.4-4.1,2.1c0,0.1,0,0.1,0,0.2
	c0,0,0,0.1,0,0.1l-2.5,11c-1.5,6,1.8,12.1,7.6,14.1c1.3,0.4,2.6,0.7,3.9,0.7c4.6,0,8.8-2.7,10.7-6.9c0,0,0-0.1,0.1-0.1l4.2-11
	c0.7-1.6-0.1-3.5-1.7-4.2C66.3,83.7,66.2,83.7,66.1,83.7L66.1,83.7z M68.1,16.3c0.1,1.4,1,2.5,2.4,2.9c0.3,0.1,0.6,0.1,0.9,0.1
	c1,0,2-0.5,2.6-1.4l6.3-8.9c1-1.4,0.7-3.5-0.8-4.5c-0.3-0.2-0.7-0.4-1-0.5l-7-1.8c-1-0.3-2.1,0-2.9,0.6c-0.8,0.7-1.2,1.7-1.2,2.7
	L68.1,16.3z M71.7,6.7L76,7.8l-3.9,5.6L71.7,6.7z M98.7,17.4L94.3,8c-0.8-1.6-2.7-2.3-4.3-1.6c-0.4,0.2-0.7,0.4-1,0.7L77.5,19.6
	c-1.2,1.3-1.1,3.3,0.2,4.5c0.6,0.5,1.4,0.8,2.2,0.8c0.2,0,0.4,0,0.6-0.1l15.9-3c1.7-0.3,2.9-2,2.6-3.8
	C98.9,17.9,98.8,17.7,98.7,17.4z M94.4,18.1l-11.9,2.3l8.6-9.3L94.4,18.1z"/>
</svg>
