<?xml version="1.0" encoding="utf-8"?>
<!-- Generator: Adobe Illustrator 25.3.1, SVG Export Plug-In . SVG Version: 6.00 Build 0)  -->
<svg version="1.1" id="レイヤー_1" xmlns="http://www.w3.org/2000/svg" xmlns:xlink="http://www.w3.org/1999/xlink" x="0px"
	 y="0px" viewBox="0 0 34.9 29.4" style="enable-background:new 0 0 34.9 29.4;" xml:space="preserve">
<style type="text/css">
	.st0{fill-rule:evenodd;clip-rule:evenodd;fill:#8E4ECC;}
</style>
<path id="icon_detail" class="st0" d="M24.5,24.5h3.3c2.1,0,4.2,0,6.2,0c0.4,0,0.8,0.3,0.9,0.7c0.1,0.4-0.1,0.8-0.6,1
	c-0.2,0-0.3,0.1-0.5,0c-3,0-5.9,0-8.9,0c-0.3,0-0.6,0.2-0.6,0.5c0,0,0,0,0,0c-0.6,1.6-2.1,2.8-3.8,2.8c-1.8,0-3.3-1.1-3.9-2.8
	c0-0.1-0.1-0.3-0.1-0.4h-0.6c-5,0-9.9,0-14.9,0c-0.5,0.1-0.9-0.3-1-0.7c-0.1-0.5,0.3-0.9,0.7-1c0.1,0,0.2,0,0.3,0
	c3.8,0,7.6,0,11.3,0c1.2,0,2.5,0,3.8,0c0.2,0,0.5-0.1,0.5-0.3c0.5-1.7,2.1-2.9,3.9-2.9c1.8,0,3.4,1.2,3.9,2.9
	C24.4,24.2,24.5,24.3,24.5,24.5z M22.8,25.3c0-1.3-1-2.3-2.3-2.3c-1.3,0-2.4,1-2.4,2.3c0,1.3,1,2.4,2.3,2.4c0,0,0.1,0,0.1,0
	C21.8,27.6,22.8,26.6,22.8,25.3L22.8,25.3z M31.9,3.2c0.7,0,1.4,0,2.1,0c0.5,0,0.9,0.3,0.9,0.8c0,0.5-0.3,0.9-0.8,0.9
	c0,0-0.1,0-0.1,0c-0.7,0-1.4,0-2.1,0c-0.2,0.9-0.8,1.8-1.5,2.4c-1.8,1.4-4.3,1.1-5.7-0.7c-0.3-0.3-0.5-0.7-0.6-1.1
	C24,5.1,23.7,4.9,23.3,5C15.9,5,8.5,5,1,5C0.6,5.1,0.1,4.8,0,4.3C0,4.2,0,4.1,0,4c0-0.4,0.3-0.8,0.8-0.8c0.2,0,0.3,0,0.4,0
	c7.4,0,14.8,0,22.2,0C23.7,3.3,24,3.1,24,2.8C24.6,1.1,26.2,0,27.9,0c1.7,0,3.3,1.1,3.8,2.8C31.8,2.9,31.8,3.1,31.9,3.2z M27.9,1.8
	c-1.3,0-2.4,1-2.4,2.3c0,1.3,1,2.4,2.3,2.4s2.4-1,2.4-2.3C30.2,2.9,29.2,1.8,27.9,1.8L27.9,1.8z M3,15.6c-0.7,0-1.4,0-2.1,0
	c-0.5,0.1-0.9-0.3-0.9-0.7c0-0.1,0-0.1,0-0.2c0-0.5,0.4-0.8,0.8-0.8c0,0,0.1,0,0.1,0c0.7,0,1.4,0,2.1,0c0.2-0.9,0.8-1.7,1.5-2.4
	c1.8-1.4,4.3-1.1,5.7,0.7c0.3,0.3,0.5,0.7,0.6,1.1c0.1,0.3,0.4,0.6,0.7,0.5c7.4,0,14.9,0,22.3,0c0.5-0.1,0.9,0.2,1,0.6
	c0,0.1,0,0.2,0,0.3c0,0.4-0.4,0.8-0.8,0.8c-0.2,0-0.3,0-0.4,0c-7.4,0-14.8,0-22.2,0c-0.3-0.1-0.6,0.2-0.7,0.5
	c-0.6,1.6-2.1,2.8-3.8,2.8c-1.7,0-3.3-1.1-3.8-2.8C3.1,15.9,3.1,15.7,3,15.6z M7,17c1.3,0,2.4-1,2.4-2.3c0-1.3-1-2.4-2.3-2.4l0,0
	c-1.3,0-2.4,1-2.4,2.3S5.7,17,7,17L7,17z"/>
</svg>
