<?xml version="1.0" encoding="utf-8"?>
<!-- Generator: Adobe Illustrator 25.3.1, SVG Export Plug-In . SVG Version: 6.00 Build 0)  -->
<svg version="1.1" id="レイヤー_1" xmlns="http://www.w3.org/2000/svg" xmlns:xlink="http://www.w3.org/1999/xlink" x="0px"
	 y="0px" viewBox="0 0 135.3 102.5" style="enable-background:new 0 0 135.3 102.5;" xml:space="preserve">
<style type="text/css">
	.st0{fill-rule:evenodd;clip-rule:evenodd;fill:#8E4ECC;}
</style>
<path id="icon_good2.svg" class="st0" d="M103.1,0C85.4,0,71,14.3,70.9,32.1c0,4.8,1.1,9.5,3.2,13.8h-7.2c1.6-5.2,2.4-10.5,2.6-15.9
	v-3.1c0-7-5.7-12.6-12.6-12.6h-3.2c-1.4,0-2.7,1-3.1,2.4l-1.7,6.9c-2.4,9.6-10.1,20.2-18,22.1c-1.4-3.6-4.9-6-8.8-6H3.2
	C1.4,39.6,0,41,0,42.8v56.6c0,1.7,1.4,3.1,3.2,3.1h18.9c3.6,0,7-2.1,8.5-5.4l10.8,3.6c3.5,1.2,7.3,1.8,11,1.8h26.4
	c5.2,0,9.5-4.2,9.5-9.4c0-1.2-0.2-2.4-0.7-3.5c5-1.3,8-6.5,6.7-11.5c-0.4-1.4-1.1-2.8-2.1-3.9c2.9-3.3,3.2-8.1,0.7-11.7
	c16.8,5.6,35-3.4,40.6-20.2c5.6-16.8-3.4-35-20.2-40.6C110.1,0.6,106.7,0,103.1,0z M25.3,93.1c0,1.7-1.4,3.1-3.2,3.1H6.3V45.9h15.8
	c1.7,0,3.2,1.4,3.2,3.1V93.1L25.3,93.1z M78.9,64.8h6.3c1.7,0,3.1,1.4,3.2,3.1s-1.4,3.1-3.1,3.2c0,0,0,0,0,0h-6.3
	c-1.7,0-3.2,1.4-3.2,3.1c0,1.7,1.4,3.2,3.1,3.2c0,0,0.1,0,0.1,0h6.3c1.7,0,3.1,1.4,3.2,3.1s-1.4,3.1-3.1,3.2c0,0,0,0,0,0h-6.3
	c-1.7,0-3.1,1.4-3.2,3.1s1.4,3.1,3.1,3.2c0,0,0,0,0,0c1.7,0,3.1,1.4,3.2,3.1s-1.4,3.1-3.1,3.2c0,0,0,0,0,0H52.5
	c-3.1,0-6.1-0.5-9-1.5l-11.9-4V51.9c5-0.9,9.8-4.1,14.2-9.2c4.4-5.2,7.5-11.2,9.3-17.7l1.1-4.5h0.7c3.5,0,6.3,2.8,6.3,6.3V30
	c0,4.2-1.3,12.3-3,15.9h-6.4c-1.7,0-3.1,1.4-3.2,3.1s1.4,3.1,3.1,3.2c0,0,0,0,0,0h24.4c2,2.4,4.2,4.5,6.8,6.3h-6
	c-1.7,0-3.1,1.4-3.1,3.1C75.8,63.4,77.2,64.8,78.9,64.8C78.9,64.8,78.9,64.8,78.9,64.8L78.9,64.8z M103.1,58.7
	c-14.7-0.1-26.6-12-26.5-26.7c0.1-14.7,12-26.6,26.7-26.5c14.7,0.1,26.5,12,26.5,26.6C129.8,46.8,117.9,58.7,103.1,58.7L103.1,58.7z
	 M88.7,46.5c1.2,1.2,3.1,1.2,4.3,0l19.4-19.3v13.6c0,1.7,1.4,3,3.1,3c1.6,0,3-1.4,3-3v-24H94.4c-1.7,0-3.1,1.3-3.1,3
	c0,1.7,1.3,3.1,3,3.1c0,0,0.1,0,0.1,0h13.7L88.7,42.2C87.5,43.4,87.5,45.3,88.7,46.5C88.7,46.5,88.7,46.5,88.7,46.5z"/>
</svg>
