<?xml version="1.0" encoding="utf-8"?>
<!-- Generator: Adobe Illustrator 25.3.1, SVG Export Plug-In . SVG Version: 6.00 Build 0)  -->
<svg version="1.1" id="レイヤー_1" xmlns="http://www.w3.org/2000/svg" xmlns:xlink="http://www.w3.org/1999/xlink" x="0px"
	 y="0px" viewBox="0 0 55 55" style="enable-background:new 0 0 55 55;" xml:space="preserve">
<style type="text/css">
	.st0{fill-rule:evenodd;clip-rule:evenodd;fill:#8E4ECC;}
</style>
<path id="icon_chat.svg" class="st0" d="M50.3,33.3c-0.3-0.8-1.2-1.2-2-0.8c-0.8,0.3-1.2,1.2-0.9,2l3.2,7.9l-9.2-4.1
	c-0.4-0.2-0.8-0.2-1.2,0c-2.7,1.2-5.7,1.7-8.6,1.7c-12.2,0-20.4-9.6-20.4-18.5c0-10.2,9.1-18.5,20.4-18.5s20.4,8.3,20.4,18.5
	c0,0.9-0.1,1.7-0.2,2.6c-0.1,0.8,0.4,1.6,1.3,1.7c0,0,0,0,0,0c0.8,0.1,1.6-0.4,1.7-1.3c0,0,0,0,0,0c1.1-6.9-1.5-13.8-6.7-18.4
	c-9.4-8.4-23.6-8.4-33,0c-3.9,3.5-6.3,8.3-6.8,13.5l0,0.3l-0.3,0.2C3.1,23.3,0.1,28.7,0,34.5c0,3.5,1.1,7,3.2,9.8l0.2,0.3l-3.4,8.3
	c-0.3,0.8,0,1.7,0.8,2C1.1,55,1.3,55,1.5,55c0.2,0,0.4,0,0.6-0.1l9.5-4.2l0.2,0.1c2.3,0.8,4.7,1.3,7.1,1.3c0,0,0.1,0,0.1,0h0.1
	c3.5,0,7-1,10-2.7c2.6-1.5,4.8-3.7,6.4-6.2l0.2-0.2l0.3-0.1c1.5-0.3,3-0.7,4.5-1.2l0.3-0.1l12,5.3c0.2,0.1,0.4,0.1,0.6,0.1
	c0.4,0,0.8-0.2,1.1-0.4c0.4-0.4,0.6-1.1,0.4-1.7L50.3,33.3z M30.8,44.2c-3.2,3-7.4,4.7-11.8,4.7h0c0,0,0,0-0.1,0h0
	c-2.3,0-4.6-0.5-6.7-1.4c-0.4-0.2-0.8-0.2-1.2,0l-6.6,2.9l2.3-5.6c0.2-0.5,0.1-1.1-0.3-1.6c-2.1-2.5-3.3-5.6-3.3-8.8
	c0-3.7,1.6-7.3,4.3-9.9l0.9-0.9L8.5,25c0.9,4.4,3.1,8.4,6.3,11.5c4.2,4,9.8,6.4,15.6,6.6l1.5,0.1L30.8,44.2z M23.3,20.4
	c1.2,0,2.2,1,2.2,2.2c0,0,0,0,0,0l0,0c0,1.2-1,2.2-2.2,2.2c-1.2,0-2.2-1-2.2-2.2c0,0,0,0,0,0l0,0C21.2,21.4,22.1,20.4,23.3,20.4
	L23.3,20.4z M29.9,22.6L29.9,22.6c0,1.2,1,2.2,2.2,2.2s2.2-1,2.2-2.2l0,0l0,0c0-1.2-1-2.2-2.2-2.2C30.9,20.5,30,21.4,29.9,22.6
	L29.9,22.6z M38.8,22.6L38.8,22.6c0,1.2,1,2.2,2.2,2.2c1.2,0,2.2-1,2.2-2.2l0,0c0-1.2-1-2.2-2.2-2.2C39.7,20.4,38.8,21.4,38.8,22.6
	L38.8,22.6z"/>
</svg>
