<?xml version="1.0" encoding="utf-8"?>
<!-- Generator: Adobe Illustrator 25.3.1, SVG Export Plug-In . SVG Version: 6.00 Build 0)  -->
<svg version="1.1" id="_x32_" xmlns="http://www.w3.org/2000/svg" xmlns:xlink="http://www.w3.org/1999/xlink" x="0px" y="0px"
	 viewBox="0 0 512 512" style="enable-background:new 0 0 512 512;" xml:space="preserve">
<style type="text/css">
	.st0{fill:#EA7DCB;}
</style>
<g>
	<path class="st0" d="M453,429.8c-2-7.5-4.8-14.2-8.3-20.2c-6.1-10.5-14.2-18.7-23.2-25.2c-6.7-4.9-13.9-8.8-21.2-12.3
		c-7.4-3.5-15-6.4-22.2-9.1c-7.5-10.7-19.5-27-19.2-53.4c0.2-17,1.5-21.4,1.8-70.5c4-3.3,7.8-7.5,11.1-12.8
		c4.3-6.8,7.8-15.2,10.1-25.7c0.7-2.9,1-5.8,1-8.6c0-6-1.4-11.6-3.8-16.7c-1.6-3.5-3.7-6.7-6.1-9.6c1.2-4.6,2.8-10.7,4.1-17.9
		c1.8-10,3.4-21.9,3.4-34.5c0-8.1-0.6-16.5-2.3-24.8c-1.2-6.2-3-12.4-5.6-18.3c-3.8-8.9-9.4-17.2-17.2-24.1
		c-7.2-6.4-16.2-11.5-27.1-14.8c-4.6-5.5-9.4-10.2-14.3-14.1c-8.3-6.6-17-11-25.9-13.7C279.2,1,270.2,0,261.2,0
		c-4.8,0-9.5,0.3-14.2,0.7c-4.4,0.4-8.1,0.8-11.4,1.4c-4.9,0.8-9,1.9-12.9,3.3c-4,1.4-7.8,2.9-12.7,4.9c-1.9,0.7-4.4,1.8-7.4,3.3
		c-5.2,2.7-12,6.5-19.2,11.9c-10.8,8.1-22.7,19.4-32,34.8c-4.6,7.7-8.6,16.4-11.4,26.2c-2.8,9.8-4.4,20.5-4.4,32.2
		c0,7.3,0.6,15.1,2,23.2c0,0.6,0,1.1,0.1,1.6c0.1,1,0.2,2.1,0.3,3.2c0.2,1.6,0.4,3.3,0.5,4.7c0.1,0.7,0.1,1.3,0.2,1.8
		c0,0.2,0,0.5,0,0.6v0.2v0v0.9l2,8.8c-2.8,3.1-5.3,6.6-7.2,10.5c-2.7,5.3-4.3,11.3-4.3,17.7c0,2.8,0.3,5.7,1,8.6l0,0
		c1.6,7,3.6,13.1,6.1,18.3c3.7,8,8.4,14.2,13.7,18.8c0.5,0.4,1,0.9,1.5,1.3c0.2,49.2,1.6,53.6,1.8,70.6
		c0.3,26.4-11.7,42.7-19.2,53.4c-3.3,1.2-6.6,2.5-9.9,3.8c-8.3,3.3-16.7,7-24.6,11.8c-6,3.5-11.8,7.6-17,12.5
		c-7.9,7.3-14.8,16.3-19.5,27.5c-4.8,11.2-7.4,24.5-7.4,40.1c0,2.2,0.5,4.3,1.2,6.3c0.7,1.8,1.7,3.5,2.8,5.1c2.2,3,5,5.6,8.4,8.2
		c6,4.4,14.1,8.6,24.5,12.6c15.6,5.9,36.5,11.1,63.5,15c27,3.8,60.1,6.2,100.1,6.2c34.6,0,64.1-1.8,89-4.8
		c18.6-2.2,34.6-5.1,48.2-8.4c10.2-2.5,19-5.2,26.6-8.1c5.7-2.1,10.7-4.4,15-6.7c3.2-1.7,6.1-3.5,8.7-5.3c3.8-2.8,6.9-5.6,9.2-8.8
		c1.2-1.6,2.1-3.3,2.8-5.2c0.7-1.8,1.1-3.9,1.1-6C456.6,448,455.3,438.4,453,429.8z M179.5,361.8c3-1.8,6-3.8,8.7-5.9
		c2.9-2.3,5.6-5,8-7.9l54.4,25.2l-25.6,46.9L179.5,361.8z M260.3,465.1l-27.3-34.9l25.8-47.4l25.7,47.2L260.3,465.1z M292,419.2
		L266.8,373l48.6-25.5c1.1,1.4,2.2,2.7,3.4,3.9c3.8,4,8.3,7.2,13.1,10.1L292,419.2z M351.1,225.3c-3.5,3.1-7.1,5.1-11,6.5l-3.7,1.4
		l-1.3,3.7c-4,11.3-7.9,20.4-11.9,27.7c-3.9,7.3-7.8,12.8-11.9,17l-1.6,1.7l-0.5,2.2c-1.8,8.3-3.6,17.6-3.6,28.5
		c0,3.4,0.2,6.9,0.6,10.6c0.4,4.3,1.4,8.4,2.9,12.1c0.1,0.2,0.1,0.3,0.2,0.5L258.6,364l-56.3-26.1c1.7-4.1,2.9-8.5,3.4-13.3v0
		c0.4-3.7,0.5-7.2,0.5-10.5c0-10.9-1.8-20.2-3.6-28.5l-0.5-2.2l-1.6-1.7c-4-4.3-8-9.8-11.9-17.1c-3.9-7.3-7.8-16.4-11.8-27.7
		l-1.3-3.7l-3.7-1.3c-2.6-1-5-2.2-7.4-3.8c-3.6-2.4-7-5.7-10.1-10.6c-3.1-4.9-6-11.5-8-20.5l0,0c-0.4-1.7-0.5-3.3-0.5-4.9
		c0-3.6,0.9-7,2.5-10.2c1.3-2.7,3.2-5.2,5.5-7.5c3.8,5.8,7,10.4,8.2,11.6c3.8,3.8,4.3-5.1,2.5-15c-3.3-18.3,5.6-10,28.2-53.9
		c45.1,10,124-38,124-38s1,21.9,16,42c14.3,19,22.4,63.7,22.4,63.7s2-3.7,4.8-8.6c1.7,2,3.2,4.2,4.2,6.5c1.4,3.1,2.2,6.2,2.2,9.6
		c0,1.6-0.2,3.2-0.5,4.9c-1.3,6-3.1,10.9-5,15C357.9,218,354.6,222.2,351.1,225.3z"/>
	<path class="st0" d="M254.2,425.7c0,3.1,2.5,5.7,5.7,5.7c3.1,0,5.6-2.5,5.6-5.7c0-3.1-2.5-5.6-5.6-5.6
		C256.7,420.1,254.2,422.6,254.2,425.7z"/>
</g>
</svg>
