<svg xmlns="http://www.w3.org/2000/svg" viewBox="0 0 704.97 412.28"><defs><style>.cls-1{fill:#8d4ca2;}</style></defs><g id="レイヤー_2" data-name="レイヤー 2"><g id="レイヤー_1-2" data-name="レイヤー 1"><path class="cls-1" d="M696,37.34h-94.5a8.93,8.93,0,0,0-8.93,8.93v7.78H574.82c-21.25-12.53-74.33-40-93.77-43.14-1.27-.2-130.3-19.08-158.94-6.72a95.19,95.19,0,0,0-18,10.73c-35.22-2.19-71.79,11.46-104.18,23.54-20.55,7.66-39.95,14.9-52.37,14.9l-35.15.2V46.27a8.93,8.93,0,0,0-8.93-8.93H8.93A8.93,8.93,0,0,0,0,46.27V266.79a8.93,8.93,0,0,0,8.93,8.93h94.51a8.93,8.93,0,0,0,8.93-8.93v-7.87q11.31,1.31,18,4c-3.25,6.32-4.46,10.69-4.72,13.65-1.94,21.91,15.69,43.73,33.39,50.38a29.87,29.87,0,0,0,10.48,2h.13a32.64,32.64,0,0,0,3.51,11c7.55,14.45,25.73,25.39,43.23,26l1.52,0a37.85,37.85,0,0,0,7-.65,35.29,35.29,0,0,0,3.06,9.33c4,8.21,11.33,15.71,20.61,21.11,8.58,5,18,7.73,26.52,7.73h.26c9.09-.06,16.66-3.24,21.79-9a35.43,35.43,0,0,0,9.4,8.36,65.74,65.74,0,0,0,33.33,9.42c8,0,15.41-1.78,20.59-5.89,4.94-3.93,9.81-10.58,14.26-18.59,8.83,5.45,24.08,14.31,36.31,18.56A24.24,24.24,0,0,0,419,407.7c10.61,0,21.23-7,28.55-19.32a47.91,47.91,0,0,0,5.55-13.79,35,35,0,0,0,14.19,3,38.35,38.35,0,0,0,7.84-.83,44.85,44.85,0,0,0,23.46-13.58c6.65-7.26,10.1-15.69,10.3-24q.68,0,1.35,0a31.42,31.42,0,0,0,6.28-.64A40.39,40.39,0,0,0,537.85,326a44.19,44.19,0,0,0,11.73-27.05,38.72,38.72,0,0,0-2.06-15,37.12,37.12,0,0,0,3.67-1.08A48,48,0,0,0,572,267.48a52.15,52.15,0,0,0,6.2-9.79l14.41-.12v9.22a8.93,8.93,0,0,0,8.93,8.93H696a8.93,8.93,0,0,0,8.93-8.93V46.27A8.93,8.93,0,0,0,696,37.34ZM94.51,257.86H17.86V55.2H94.51Zm70.84,52.41c-10.84-4.07-23-19.29-21.88-32.08.17-1.92,2.18-6.61,6.69-13.74l.1-.15a202.57,202.57,0,0,1,13.24-18.18c11.48-14.25,24.29-27.07,31.16-31.18a15.88,15.88,0,0,1,8.28-2.24c6.62,0,13.41,3.68,17.95,8.63,1.37,1.49,8,9.26,3.54,15.39-4.86,6.71-12.33,17.32-20.24,28.55-10.63,15.08-22.68,32.18-31.64,44.46C172,310.43,170.69,312.28,165.35,310.27Zm51.7,37.88c-10.93-.39-23.5-7.76-28-16.43-2.52-4.82-2.27-9.46.77-14.17a9.11,9.11,0,0,0,1.17-2.78c8.44-11.7,18.65-26.2,27.83-39.22,7.72-11,15-21.32,19.82-28,8.94-10,21.44-4.84,25.09-3,8.07,4.08,13.47,11.39,12.28,16.63-3.5,15.42-23.43,45.76-36.62,65.83-4.14,6.31-7.72,11.76-10.4,16.12C226.79,346.68,222.79,348.36,217.05,348.15Zm40.57,32.23c-2.23-1.29-21.46-13.06-13.3-28.1,2.53-4.09,6-9.35,10-15.42,12.83-19.53,29.8-45.36,36.73-64,4.93-2.3,13.49-1.24,21.49,2.85S326.08,286.17,325.8,291s-2.77,17.52-16.25,45.15c-8.4,17.23-18.37,34.75-24.9,45.39C281.49,386.73,270.26,387.73,257.62,380.38Zm91.79,12c-4.8,3.82-22.46,2.19-33.27-4.63-3.15-2-6.33-4.94-5.8-7.24a8.9,8.9,0,0,0-.78-6.14c5.2-9.21,10.9-19.84,16-30.38,7.63-15.65,12.87-28.68,15.67-39,4.23-1.51,12.18-.86,20.61,3.15,8.7,4.14,15,10.66,14.94,15.5C376.69,341.21,361.09,383.13,349.41,392.4Zm185.37-127-63.25-56.95a8.93,8.93,0,0,0-11.95,13.28l65.25,58.74c12.25,12.86,5.69,27.06-.16,33.44-4.39,4.81-14,11.19-22.07,4.64-.69-.56-1.45-1.19-2.27-1.88a8.14,8.14,0,0,0-.9-.77c-10.74-9.18-30.91-28-49.36-46.12a8.93,8.93,0,0,0-12.51,12.75c18.94,18.59,39,37.34,50.23,46.91,2.36,3.06,7,11.44-2.34,21.65-6.88,7.5-19.07,11.95-28.13,5.46-7-5-12.39-10.18-18.64-16.15-4.74-4.54-10.12-9.68-16.83-15.3a8.93,8.93,0,1,0-11.48,13.68c6.27,5.26,11.2,10,16,14.53,2.14,2,4.25,4.06,6.39,6a9.16,9.16,0,0,0,1.89,2.44c3.1,2.82,1.25,11.32-2.41,17.5-3.79,6.39-10.26,12-15.27,10.21-11.34-3.93-26.59-13-34.4-17.89,7.19-17.36,12.06-36.45,12.14-47.76.1-12.18-9.53-24.35-25.12-31.77-7.45-3.54-17.2-6.18-26.24-5.5-1.76-10.36-10-20.26-22.68-26.73-9.28-4.74-18.88-6.65-27.28-5.76-2.21-10-10.06-19.58-21.6-25.42-9.7-4.91-19.84-6.08-28.87-3.75a37.17,37.17,0,0,0-8.84-15.64c-11.39-12.42-31.73-19.73-48.57-9.64C174.87,206,160,222,149.59,234.91c-3.77,4.69-7,8.92-9.68,12.75-6.92-3.32-16-5.52-27.54-6.71V71.42l35.21-.2c15.58,0,35.49-7.43,58.55-16,24.25-9,51-19,76.63-21.84-20.28,19.86-39.57,44.58-53.26,62.13-3.75,4.8-7,9-9.74,12.36-12.8,15.85-10.8,36.4,5,51.14,8.21,7.67,19.75,12.81,31.34,12.81a35.63,35.63,0,0,0,24.68-9.67c7-6.52,14.09-13.57,20.9-20.39,17-17,34.64-34.66,47.71-38.89,7.92-.71,56.87,6.73,67.21,9.72,24.18,12.89,95.55,67.15,143.15,114.67,8.87,8.88,4.65,21.2-1.66,29.07C552,263.92,541.73,269.66,534.78,265.38Zm47.89-25.59a34.08,34.08,0,0,0-10.32-25.19C537.63,179.93,460.06,115,424.06,96.31c-.15-.08-.31-.14-.47-.21l-.06,0a8.86,8.86,0,0,0-1.28-.45c-5.9-1.78-23.47-4.85-38.18-7-33.07-4.9-37.41-3.59-39.49-3-17.39,5.28-35.92,23.84-55.55,43.48-6.69,6.7-13.62,13.62-20.41,19.91-9.26,8.58-23.24,4.81-31.69-3.09-3.34-3.12-13.44-14.27-3.27-26.87,2.85-3.53,6.13-7.73,9.92-12.59,17.2-22,43.66-56,68-74.9a9.22,9.22,0,0,0,1.16-.9,81.65,81.65,0,0,1,16.5-10.08c3.83-1.65,18.72-5,74.19-.51,33.12,2.69,65.27,6.94,74.84,8.47,14.68,2.35,65.42,27.52,89.51,42.08a9,9,0,0,0,4.62,1.28h20.25v167.8Zm104.44,18.07H610.47V55.2h76.64Z"/></g></g></svg>